<svg xmlns="http://www.w3.org/2000/svg" width="12.957" height="15" viewBox="0 0 12.957 15"><defs><style>.a{fill:#f6a400;}</style></defs><path class="a" d="M12.031,10.437V4.627A2.713,2.713,0,0,0,9.255,1.851H8.329V0L5.553,2.776,8.329,5.553V3.7h.925c.816,0,.925.925.925.925v5.809a1.851,1.851,0,1,0,1.851,0Zm-.925,2.52a.925.925,0,1,1,.925-.925A.926.926,0,0,1,11.106,12.957ZM.925,4.564v5.809A2.713,2.713,0,0,0,3.7,13.149h.925V15L7.4,12.224,4.627,9.447V11.3H3.7c-.816,0-.925-.925-.925-.925V4.564a1.851,1.851,0,1,0-1.851,0Zm.925-.63a.925.925,0,1,1,.925-.925A.925.925,0,0,1,1.851,3.933Z"/></svg>